<?xml version="1.0" encoding="UTF-8"?>
<svg version="1.1" xmlns="http://www.w3.org/2000/svg" width="169" height="148">
<path d="M0 0 C55.77 0 111.54 0 169 0 C169 48.84 169 97.68 169 148 C113.23 148 57.46 148 0 148 C0 99.16 0 50.32 0 0 Z " fill="#6A67ED" transform="translate(0,0)"/>
<path d="M0 0 C2.8678815 1.30859364 5.61795446 2.7858305 8.375 4.3125 C14.03992931 7.39694107 19.72360721 10.37936659 25.546875 13.15625 C26.6395166 13.68178467 27.7321582 14.20731934 28.85791016 14.7487793 C31.0123563 15.77995756 33.17343641 16.79740383 35.34130859 17.80004883 C36.32437988 18.27466553 37.30745117 18.74928223 38.3203125 19.23828125 C39.63926514 19.8576355 39.63926514 19.8576355 40.98486328 20.48950195 C43 22 43 22 43.97998047 24.48510742 C44 27 44 27 42.85351562 28.66577148 C40.7563633 30.17537863 38.69164056 31.26452474 36.34375 32.34765625 C35.41232178 32.78360107 34.48089355 33.2195459 33.52124023 33.66870117 C32.52423096 34.12865479 31.52722168 34.5886084 30.5 35.0625 C21.87147817 39.09213599 13.40469831 43.30646434 5.1171875 48.00219727 C0.92990924 50.29761602 -2.11003907 51.81390828 -7 51 C-9.58063259 49.92425959 -11.92776215 48.81832627 -14.375 47.5 C-15.79275731 46.76261416 -17.21073247 46.02564705 -18.62890625 45.2890625 C-19.35094238 44.90911133 -20.07297852 44.52916016 -20.81689453 44.13769531 C-23.61817585 42.67784618 -26.44684545 41.27753221 -29.27929688 39.87939453 C-48.72837565 30.27162435 -48.72837565 30.27162435 -52 27 C-52.015625 24.60546875 -52.015625 24.60546875 -51 22 C-48.89179065 20.49369066 -47.05759497 19.42229799 -44.75 18.3125 C-44.09757324 17.98145264 -43.44514648 17.65040527 -42.77294922 17.30932617 C-40.52678148 16.18104164 -38.26648453 15.08688444 -36 14 C-35.1347168 13.58492187 -34.26943359 13.16984375 -33.37792969 12.7421875 C-29.75753434 11.01165148 -26.13641173 9.283696 -22.49902344 7.58911133 C-18.27151748 5.61156002 -14.23484234 3.55719269 -10.2421875 1.13671875 C-6.36832976 -1.02259196 -4.32210777 -1.57945099 0 0 Z " fill="#F8F8FE" transform="translate(87,31)"/>
<path d="M0 0 C0.79019531 0.50789063 1.58039063 1.01578125 2.39453125 1.5390625 C4.09029297 2.36277344 4.09029297 2.36277344 5.8203125 3.203125 C7.11689681 3.85476231 8.41241962 4.50851479 9.70703125 5.1640625 C11.1197608 5.87506134 12.53252222 6.58599685 13.9453125 7.296875 C14.67186035 7.66329102 15.3984082 8.02970703 16.14697266 8.40722656 C19.89186288 10.29309568 23.64349797 12.1654508 27.39453125 14.0390625 C28.74872907 14.71608352 30.10289866 15.39316101 31.45703125 16.0703125 C32.91109375 16.79734375 32.91109375 16.79734375 34.39453125 17.5390625 C32.40114811 19.53244564 31.0261317 20.29952255 28.5 21.45703125 C27.71520264 21.82135254 26.93040527 22.18567383 26.12182617 22.56103516 C25.28369385 22.94565918 24.44556152 23.3302832 23.58203125 23.7265625 C16.54844026 26.97834624 9.80275641 30.42864685 3.15625 34.421875 C-0.38104169 35.85280205 -1.95580116 35.62716215 -5.60546875 34.5390625 C-8.3555973 33.30713912 -10.97454414 31.88089842 -13.60546875 30.4140625 C-15.10341007 29.59886862 -16.6021217 28.78508875 -18.1015625 27.97265625 C-18.85034668 27.56515137 -19.59913086 27.15764648 -20.37060547 26.73779297 C-23.76893338 24.9150062 -27.21291534 23.18877745 -30.66796875 21.4765625 C-31.81394531 20.90808594 -32.95992187 20.33960937 -34.140625 19.75390625 C-35.36072266 19.15255859 -35.36072266 19.15255859 -36.60546875 18.5390625 C-33.914999 15.62557254 -31.53929622 13.78212671 -27.9375 12.13671875 C-27.04353516 11.72099609 -26.14957031 11.30527344 -25.22851562 10.87695312 C-23.83729492 10.24563477 -23.83729492 10.24563477 -22.41796875 9.6015625 C-20.58978298 8.7620762 -18.76294557 7.91964701 -16.9375 7.07421875 C-15.59872803 6.45957764 -15.59872803 6.45957764 -14.23291016 5.83251953 C-11.63413681 4.55317543 -9.21216786 3.10768568 -6.7421875 1.59765625 C-2.96629366 -0.52477159 -2.96629366 -0.52477159 0 0 Z " fill="#7472EE" transform="translate(84.60546875,38.4609375)"/>
<path d="M0 0 C6.07454375 0.47743994 10.44470177 2.4437347 15.78515625 5.2890625 C17.46664832 6.15653801 19.14829357 7.02371666 20.83007812 7.890625 C23.45516202 9.25916382 26.07737992 10.63283923 28.6965332 12.01269531 C31.23998598 13.34782364 33.79298938 14.6630518 36.34765625 15.9765625 C37.51507103 16.60300156 37.51507103 16.60300156 38.70606995 17.24209595 C41.98575848 18.91915573 44.27553777 19.99580792 47.99560547 20.01733398 C52.11577165 18.62218264 55.87302657 16.76004155 59.72265625 14.74609375 C61.4120791 13.88340425 63.10153316 13.02077587 64.79101562 12.15820312 C67.43453823 10.79595588 70.07629092 9.43035785 72.71704102 8.06274414 C75.27719874 6.74045965 77.84332453 5.43036297 80.41015625 4.12109375 C81.19673111 3.708629 81.98330597 3.29616425 82.79371643 2.87120056 C89.75333837 -0.67101041 89.75333837 -0.67101041 94 0 C95 1 95 1 95.0625 3.5625 C95.041875 4.366875 95.02125 5.17125 95 6 C85.35436228 11.22420584 75.65094309 16.22444672 65.6862793 20.81616211 C61.02085554 22.98046085 56.60843968 25.33768888 52.23828125 28.05566406 C48.47878424 29.64180438 45.62550282 29.6063942 41.77938843 28.17160034 C39.09079717 26.96811492 36.45735159 25.68372532 33.82421875 24.36328125 C32.85845413 23.88682663 31.89268951 23.41037201 30.8976593 22.91947937 C28.86321582 21.910855 26.83186937 20.89596271 24.8034668 19.87524414 C21.69135176 18.31443177 18.56458025 16.78632113 15.43554688 15.25976562 C13.45996662 14.27538358 11.48532299 13.28911907 9.51171875 12.30078125 C8.57325607 11.84536453 7.6347934 11.38994781 6.66789246 10.92073059 C5.80642105 10.4806517 4.94494965 10.04057281 4.05737305 9.5871582 C3.29603561 9.20743362 2.53469818 8.82770905 1.75028992 8.43647766 C0 7 0 7 -0.81608582 4.46330261 C-1 2 -1 2 0 0 Z " fill="#F8F8FE" transform="translate(36,75)"/>
<path d="M0 0 C3.46397543 0.4772786 6.34200753 1.46617394 9.484375 2.96875 C10.75148315 3.5723938 10.75148315 3.5723938 12.04418945 4.18823242 C12.93710693 4.62111572 13.83002441 5.05399902 14.75 5.5 C15.67578857 5.94126221 16.60157715 6.38252441 17.55541992 6.8371582 C22.06741867 9.00822629 26.51375597 11.24511632 30.87890625 13.69921875 C31.63010742 14.11816406 32.38130859 14.53710938 33.15527344 14.96875 C34.55338328 15.75862826 35.94165718 16.56628143 37.31738281 17.39453125 C41.30586584 19.64933203 44.23888662 20.535983 48.93041992 19.63842773 C52.89144615 18.41652334 56.40027402 16.46358345 60 14.4375 C61.66992215 13.5300514 63.34050709 12.62382156 65.01171875 11.71875 C65.84364746 11.26371094 66.67557617 10.80867188 67.53271484 10.33984375 C71.26343624 8.31389886 75.02795805 6.36065241 78.8125 4.4375 C79.7705957 3.93657837 79.7705957 3.93657837 80.74804688 3.42553711 C84.4741203 1.53720357 87.80858658 0.25087292 92 0 C92.99 0.99 92.99 0.99 94 2 C93.87759399 4.46330261 93.87759399 4.46330261 93 7 C91.25643921 8.43647766 91.25643921 8.43647766 88.95849609 9.5871582 C88.10025238 10.02723709 87.24200867 10.46731598 86.35775757 10.92073059 C85.42243195 11.37614731 84.48710632 11.83156403 83.5234375 12.30078125 C82.56482819 12.7820195 81.60621887 13.26325775 80.61856079 13.75907898 C78.58678993 14.77364397 76.55053285 15.77926647 74.51025391 16.77661133 C71.39669286 18.30187317 68.3015263 19.86031194 65.20703125 21.42382812 C63.23017757 22.40568382 61.25234268 23.3855669 59.2734375 24.36328125 C57.88866714 25.06158806 57.88866714 25.06158806 56.47592163 25.77400208 C50.79809591 28.52060846 46.08631432 30.40673429 39.79443359 28.24072266 C38.85591553 27.70777588 38.85591553 27.70777588 37.8984375 27.1640625 C37.17084229 26.76388916 36.44324707 26.36371582 35.69360352 25.95141602 C34.92846436 25.51369873 34.1633252 25.07598145 33.375 24.625 C31.70658709 23.70570432 30.03592205 22.79048671 28.36328125 21.87890625 C27.49396973 21.40469238 26.6246582 20.93047852 25.72900391 20.44189453 C20.20652555 17.52404186 14.52483341 14.92960752 8.85498047 12.31298828 C8.01725098 11.92224121 7.17952148 11.53149414 6.31640625 11.12890625 C5.57849854 10.78931885 4.84059082 10.44973145 4.08032227 10.09985352 C1.86335752 8.92775797 -0.03487624 7.55252264 -2 6 C-1.125 1.125 -1.125 1.125 0 0 Z " fill="#F7F7FE" transform="translate(37,97)"/>
</svg>
